#Comment line ignore any data following # character 
#Hierarchical Translation and Rotation (.htr) file 
[Header]	
#Header keywords are followed by a single value 
FileType HTR		#Single word string
DataType HTRS		#Translation followed by rotation and scale data
FileVersion 1		#integer
NumSegments 84		#integer
NumFrames 2		#integer
DataFrameRate 30		#integer, data frame rate in this file
EulerRotationOrder ZYX
CalibrationUnits mm
RotationUnits Degrees
GlobalAxisofGravity Y
BoneLengthAxis Y
ScaleFactor 1.00
[SegmentNames&Hierarchy]
#CHILD	PARENT
MASTER GLOBAL
root MASTER
chest root
L_mid_tent01 root
R_mid_tent01 root
spine01 root
Bip01_Neck chest
L_humerus chest
R_humerus chest
weapon_bone chest
Bip01_Head Bip01_Neck
eye_left_bone Bip01_Head
eye_right_bone Bip01_Head
L_forearm L_humerus
L_front_hand L_forearm
L_weapon_bone L_forearm
L_front_hand01_01 L_front_hand
L_front_hand02_01 L_front_hand
L_front_hand03_01 L_front_hand
L_front_hand01_02 L_front_hand01_01
L_front_hand02_02 L_front_hand02_01
L_front_hand03_02 L_front_hand03_01
R_forearm R_humerus
R_front_hand R_forearm
R_weapon_bone R_forearm
R_front_hand01_01 R_front_hand
R_front_hand02_01 R_front_hand
R_front_hand03_01 R_front_hand
R_front_hand01_02 R_front_hand01_01
R_front_hand02_02 R_front_hand02_01
R_front_hand03_02 R_front_hand03_01
null_rope01_connect L_mid_tent01
Rope1_Seg01 null_rope01_connect
Rope1_Seg02 Rope1_Seg01
Rope1_Seg03 Rope1_Seg02
Rope1_Seg04 Rope1_Seg03
Rope1_Seg05 Rope1_Seg04
Rope1_Seg06 Rope1_Seg05
Rope1_Seg07 Rope1_Seg06
Rope1_Seg09 Rope1_Seg07
L_mid_hand01 Rope1_Seg09
L_mid_hand02 Rope1_Seg09
L_mid_hand03 Rope1_Seg09
null_rope02_connect R_mid_tent01
Rope2_Seg01 null_rope02_connect
Rope2_Seg02 Rope2_Seg01
Rope2_Seg03 Rope2_Seg02
Rope2_Seg04 Rope2_Seg03
Rope2_Seg05 Rope2_Seg04
Rope2_Seg06 Rope2_Seg05
Rope2_Seg07 Rope2_Seg06
Rope2_Seg09 Rope2_Seg07
R_mid_hand01 Rope2_Seg09
R_mid_hand02 Rope2_Seg09
R_mid_hand03 Rope2_Seg09
spine02 spine01
spine03 spine02
pelvis spine03
null_rope03_connect pelvis
null_rope04_connect pelvis
Rope3_Seg01 null_rope03_connect
Rope3_Seg02 Rope3_Seg01
Rope3_Seg03 Rope3_Seg02
Rope3_Seg04 Rope3_Seg03
Rope3_Seg05 Rope3_Seg04
Rope3_Seg06 Rope3_Seg05
Rope3_Seg07 Rope3_Seg06
Rope3_Seg08 Rope3_Seg07
Rope3_Seg09 Rope3_Seg08
R_rear_hand01 Rope3_Seg09
R_rear_hand02 Rope3_Seg09
R_rear_hand03 Rope3_Seg09
Rope4_Seg01 null_rope04_connect
Rope4_Seg02 Rope4_Seg01
Rope4_Seg03 Rope4_Seg02
Rope4_Seg04 Rope4_Seg03
Rope4_Seg05 Rope4_Seg04
Rope4_Seg06 Rope4_Seg05
Rope4_Seg07 Rope4_Seg06
Rope4_Seg08 Rope4_Seg07
Rope4_Seg09 Rope4_Seg08
L_rear_hand01 Rope4_Seg09
L_rear_hand02 Rope4_Seg09
L_rear_hand03 Rope4_Seg09
[BasePosition]
#SegmentName Tx, Ty, Tz, Rx, Ry, Rz, BoneLength
MASTER 0.000000 0.000000 0.000000 -90.000000 0.000000 0.000000 10.000000 
root 0.000000 0.000000 0.000000 0.000000 0.000000 0.000000 10.000000 
chest 0.000000 0.000000 0.000000 0.000000 0.000000 0.000000 10.000000 
L_mid_tent01 0.000000 0.000000 0.000000 0.000000 0.000000 0.000000 10.000000 
R_mid_tent01 0.000000 0.000000 0.000000 0.000000 0.000000 0.000000 10.000000 
spine01 0.000000 0.000000 0.000000 0.000000 0.000000 0.000000 10.000000 
Bip01_Neck 0.000000 0.000000 0.000000 0.000000 0.000000 0.000000 10.000000 
L_humerus 0.000000 0.000000 0.000000 0.000000 0.000000 0.000000 10.000000 
R_humerus 0.000000 0.000000 0.000000 0.000000 0.000000 0.000000 10.000000 
weapon_bone 0.000000 0.000000 0.000000 0.000000 0.000000 0.000000 10.000000 
Bip01_Head 0.000000 0.000000 0.000000 0.000000 0.000000 0.000000 10.000000 
eye_left_bone 0.000000 0.000000 0.000000 0.000000 0.000000 0.000000 10.000000 
eye_right_bone 0.000000 0.000000 0.000000 0.000000 0.000000 0.000000 10.000000 
L_forearm 0.000000 0.000000 0.000000 0.000000 0.000000 0.000000 10.000000 
L_front_hand 0.000000 0.000000 0.000000 0.000000 0.000000 0.000000 10.000000 
L_weapon_bone 0.000000 0.000000 0.000000 0.000000 0.000000 0.000000 10.000000 
L_front_hand01_01 0.000000 0.000000 0.000000 0.000000 0.000000 0.000000 10.000000 
L_front_hand02_01 0.000000 0.000000 0.000000 0.000000 0.000000 0.000000 10.000000 
L_front_hand03_01 0.000000 0.000000 0.000000 0.000000 0.000000 0.000000 10.000000 
L_front_hand01_02 0.000000 0.000000 0.000000 0.000000 0.000000 0.000000 10.000000 
L_front_hand02_02 0.000000 0.000000 0.000000 0.000000 0.000000 0.000000 10.000000 
L_front_hand03_02 0.000000 0.000000 0.000000 0.000000 0.000000 0.000000 10.000000 
R_forearm 0.000000 0.000000 0.000000 0.000000 0.000000 0.000000 10.000000 
R_front_hand 0.000000 0.000000 0.000000 0.000000 0.000000 0.000000 10.000000 
R_weapon_bone 0.000000 0.000000 0.000000 0.000000 0.000000 0.000000 10.000000 
R_front_hand01_01 0.000000 0.000000 0.000000 0.000000 0.000000 0.000000 10.000000 
R_front_hand02_01 0.000000 0.000000 0.000000 0.000000 0.000000 0.000000 10.000000 
R_front_hand03_01 0.000000 0.000000 0.000000 0.000000 0.000000 0.000000 10.000000 
R_front_hand01_02 0.000000 0.000000 0.000000 0.000000 0.000000 0.000000 10.000000 
R_front_hand02_02 0.000000 0.000000 0.000000 0.000000 0.000000 0.000000 10.000000 
R_front_hand03_02 0.000000 0.000000 0.000000 0.000000 0.000000 0.000000 10.000000 
null_rope01_connect 0.000000 0.000000 0.000000 0.000000 0.000000 0.000000 10.000000 
Rope1_Seg01 0.000000 0.000000 0.000000 0.000000 0.000000 0.000000 10.000000 
Rope1_Seg02 0.000000 0.000000 0.000000 0.000000 0.000000 0.000000 10.000000 
Rope1_Seg03 0.000000 0.000000 0.000000 0.000000 0.000000 0.000000 10.000000 
Rope1_Seg04 0.000000 0.000000 0.000000 0.000000 0.000000 0.000000 10.000000 
Rope1_Seg05 0.000000 0.000000 0.000000 0.000000 0.000000 0.000000 10.000000 
Rope1_Seg06 0.000000 0.000000 0.000000 0.000000 0.000000 0.000000 10.000000 
Rope1_Seg07 0.000000 0.000000 0.000000 0.000000 0.000000 0.000000 10.000000 
Rope1_Seg09 0.000000 0.000000 0.000000 0.000000 0.000000 0.000000 10.000000 
L_mid_hand01 0.000000 0.000000 0.000000 0.000000 0.000000 0.000000 10.000000 
L_mid_hand02 0.000000 0.000000 0.000000 0.000000 0.000000 0.000000 10.000000 
L_mid_hand03 0.000000 0.000000 0.000000 0.000000 0.000000 0.000000 10.000000 
null_rope02_connect 0.000000 0.000000 0.000000 0.000000 0.000000 0.000000 10.000000 
Rope2_Seg01 0.000000 0.000000 0.000000 0.000000 0.000000 0.000000 10.000000 
Rope2_Seg02 0.000000 0.000000 0.000000 0.000000 0.000000 0.000000 10.000000 
Rope2_Seg03 0.000000 0.000000 0.000000 0.000000 0.000000 0.000000 10.000000 
Rope2_Seg04 0.000000 0.000000 0.000000 0.000000 0.000000 0.000000 10.000000 
Rope2_Seg05 0.000000 0.000000 0.000000 0.000000 0.000000 0.000000 10.000000 
Rope2_Seg06 0.000000 0.000000 0.000000 0.000000 0.000000 0.000000 10.000000 
Rope2_Seg07 0.000000 0.000000 0.000000 0.000000 0.000000 0.000000 10.000000 
Rope2_Seg09 0.000000 0.000000 0.000000 0.000000 0.000000 0.000000 10.000000 
R_mid_hand01 0.000000 0.000000 0.000000 0.000000 0.000000 0.000000 10.000000 
R_mid_hand02 0.000000 0.000000 0.000000 0.000000 0.000000 0.000000 10.000000 
R_mid_hand03 0.000000 0.000000 0.000000 0.000000 0.000000 0.000000 10.000000 
spine02 0.000000 0.000000 0.000000 0.000000 0.000000 0.000000 10.000000 
spine03 0.000000 0.000000 0.000000 0.000000 0.000000 0.000000 10.000000 
pelvis 0.000000 0.000000 0.000000 0.000000 0.000000 0.000000 10.000000 
null_rope03_connect 0.000000 0.000000 0.000000 0.000000 0.000000 0.000000 10.000000 
null_rope04_connect 0.000000 0.000000 0.000000 0.000000 0.000000 0.000000 10.000000 
Rope3_Seg01 0.000000 0.000000 0.000000 0.000000 0.000000 0.000000 10.000000 
Rope3_Seg02 0.000000 0.000000 0.000000 0.000000 0.000000 0.000000 10.000000 
Rope3_Seg03 0.000000 0.000000 0.000000 0.000000 0.000000 0.000000 10.000000 
Rope3_Seg04 0.000000 0.000000 0.000000 0.000000 0.000000 0.000000 10.000000 
Rope3_Seg05 0.000000 0.000000 0.000000 0.000000 0.000000 0.000000 10.000000 
Rope3_Seg06 0.000000 0.000000 0.000000 0.000000 0.000000 0.000000 10.000000 
Rope3_Seg07 0.000000 0.000000 0.000000 0.000000 0.000000 0.000000 10.000000 
Rope3_Seg08 0.000000 0.000000 0.000000 0.000000 0.000000 0.000000 10.000000 
Rope3_Seg09 0.000000 0.000000 0.000000 0.000000 0.000000 0.000000 10.000000 
R_rear_hand01 0.000000 0.000000 0.000000 0.000000 0.000000 0.000000 10.000000 
R_rear_hand02 0.000000 0.000000 0.000000 0.000000 0.000000 0.000000 10.000000 
R_rear_hand03 0.000000 0.000000 0.000000 0.000000 0.000000 0.000000 10.000000 
Rope4_Seg01 0.000000 0.000000 0.000000 0.000000 0.000000 0.000000 10.000000 
Rope4_Seg02 0.000000 0.000000 0.000000 0.000000 0.000000 0.000000 10.000000 
Rope4_Seg03 0.000000 0.000000 0.000000 0.000000 0.000000 0.000000 10.000000 
Rope4_Seg04 0.000000 0.000000 0.000000 0.000000 0.000000 0.000000 10.000000 
Rope4_Seg05 0.000000 0.000000 0.000000 0.000000 0.000000 0.000000 10.000000 
Rope4_Seg06 0.000000 0.000000 0.000000 0.000000 0.000000 0.000000 10.000000 
Rope4_Seg07 0.000000 0.000000 0.000000 0.000000 0.000000 0.000000 10.000000 
Rope4_Seg08 0.000000 0.000000 0.000000 0.000000 0.000000 0.000000 10.000000 
Rope4_Seg09 0.000000 0.000000 0.000000 0.000000 0.000000 0.000000 10.000000 
L_rear_hand01 0.000000 0.000000 0.000000 0.000000 0.000000 0.000000 10.000000 
L_rear_hand02 0.000000 0.000000 0.000000 0.000000 0.000000 0.000000 10.000000 
L_rear_hand03 0.000000 0.000000 0.000000 0.000000 0.000000 0.000000 10.000000 
#Beginning of Data. Separated by tabs
#Fr	Tx	Ty	Tz	Rx	Ry	Rz	SF
[MASTER]
123 -27.308207 4550.075684 0.000000 0.001660 0.001660 0.001660 4550.157715
124 -31.466129 4537.313477 0.000000 0.001660 0.001660 0.001660 4537.422852
[root]
123 1396.624268 35.025330 1404.560913 -50.722458 -9.244896 -89.274940 1981.054565
124 1394.021851 35.025330 1415.088257 -50.722466 -9.244898 -89.274940 1986.705444
[chest]
123 -84.512650 -34.090519 0.000000 -2.148455 -1.141643 171.850601 91.129311
124 -84.512650 -34.090519 0.000000 -2.161437 -0.472374 171.888016 91.129311
[L_mid_tent01]
123 27.299850 22.177540 -249.917908 -12.632553 2.577001 46.116730 252.380829
124 27.299860 22.177546 -249.917908 -12.632552 2.577001 46.116730 252.380829
[R_mid_tent01]
123 23.228794 24.509907 226.238495 -164.951904 -61.304131 50.519287 228.744751
124 23.228794 24.509907 226.238495 -172.006119 -53.182140 53.025272 228.744751
[spine01]
123 -0.361383 -0.195265 0.000000 0.001869 0.001420 15.534141 0.410763
124 -0.361383 -0.195265 0.000000 0.001869 0.001420 15.534141 0.410763
[Bip01_Neck]
123 165.484543 71.581718 0.000119 175.896118 1.177290 24.871183 180.302734
124 165.484543 71.581718 0.000119 175.896118 1.177290 24.871183 180.302734
[L_humerus]
123 -13.983130 -135.272980 -120.471481 175.500610 55.921959 -64.828316 181.680161
124 -13.983130 -135.272980 -120.471481 175.500610 55.921959 -64.828316 181.680161
[R_humerus]
123 -13.983309 -135.273102 125.287651 -178.898193 -46.892124 -62.295071 184.909012
124 -13.983309 -135.273102 125.287651 -178.898193 -46.892124 -62.295071 184.909012
[weapon_bone]
123 235.964890 -300.705902 0.000000 0.000000 -89.951546 -128.212341 382.234833
124 235.964890 -300.705902 0.000000 0.000000 -89.951546 -128.212341 382.234833
[Bip01_Head]
123 186.019897 185.149918 15.270385 28.048519 22.530460 -50.190365 262.901276
124 186.019897 185.149918 15.270385 27.180698 21.955275 -50.200684 262.901276
[eye_left_bone]
123 -24.626970 125.451866 -64.772606 0.000000 -90.000000 -99.840431 143.318359
124 -24.626970 125.451866 -64.772606 0.000000 -90.000000 -99.840431 143.318359
[eye_right_bone]
123 -24.626970 125.451866 64.327362 0.000000 -89.960434 80.159386 143.117676
124 -24.626970 125.451866 64.327362 0.000000 -89.960434 80.159386 143.117676
[L_forearm]
123 322.776093 0.000000 -0.000119 0.000640 0.002258 -58.348751 322.776093
124 322.776093 0.000000 -0.000119 0.000640 0.002258 -58.348751 322.776093
[L_front_hand]
123 241.149185 -0.042021 -3.300071 -178.667953 -1.835447 -27.422350 241.171753
124 241.149185 -0.042021 -3.300071 -178.667953 -1.835447 -27.422350 241.171753
[L_weapon_bone]
123 156.183838 0.000000 0.000000 0.000014 0.000007 0.000001 156.183838
124 156.183838 0.000000 0.000000 0.000014 0.000007 0.000001 156.183838
[L_front_hand01_01]
123 86.095154 20.947098 -0.655860 -0.366594 -0.477154 75.385574 88.609184
124 86.095154 20.947098 -0.655860 -0.366594 -0.477154 75.385574 88.609184
[L_front_hand02_01]
123 86.935165 -11.437475 24.513514 154.403519 -59.888931 -61.371990 91.046425
124 86.935165 -11.437475 24.513514 154.403519 -59.888931 -61.371990 91.046425
[L_front_hand03_01]
123 86.637497 -14.123976 -20.424902 -153.913849 58.118122 -62.702866 90.126129
124 86.637497 -14.123976 -20.424902 -153.913849 58.118122 -62.702866 90.126129
[L_front_hand01_02]
123 71.020905 -0.000179 0.000030 0.000334 -0.002323 -106.379684 71.020905
124 71.020905 -0.000179 0.000030 0.000334 -0.002323 -106.379684 71.020905
[L_front_hand02_02]
123 71.020927 -0.000119 0.000060 0.000334 -0.002323 -106.379684 71.020927
124 71.020927 -0.000119 0.000060 0.000334 -0.002323 -106.379684 71.020927
[L_front_hand03_02]
123 71.020905 -0.000060 0.000060 0.000334 -0.002323 -106.379684 71.020905
124 71.020905 -0.000060 0.000060 0.000334 -0.002323 -106.379684 71.020905
[R_forearm]
123 322.776428 -0.000060 0.000030 0.178801 -0.113338 -58.530384 322.776428
124 322.776428 -0.000060 0.000030 0.178801 -0.113338 -58.530384 322.776428
[R_front_hand]
123 238.847015 -0.006795 2.210259 -1.531694 0.790216 -51.443054 238.857239
124 238.847015 -0.006795 2.210259 -1.531694 0.790216 -51.443054 238.857239
[R_weapon_bone]
123 155.664093 0.002503 -0.000030 0.003487 0.001180 -90.988930 155.664078
124 155.664093 0.002503 -0.000030 0.003487 0.001180 -90.988930 155.664078
[R_front_hand01_01]
123 87.624611 14.231146 22.918642 -154.633499 -59.950619 61.746044 91.683487
124 87.624611 14.231146 22.918642 -154.633499 -59.950619 61.746044 91.683487
[R_front_hand02_01]
123 89.356956 14.367283 -19.491137 154.602661 58.302849 63.744389 92.579636
124 89.356956 14.367283 -19.491137 154.602661 58.302849 63.744389 92.579636
[R_front_hand03_01]
123 87.286232 -22.307278 -0.143439 0.162155 -0.423168 -75.767906 90.091743
124 87.286232 -22.307278 -0.143439 0.162155 -0.423168 -75.767921 90.091743
[R_front_hand01_02]
123 71.020905 0.000060 0.000119 0.002323 -0.000334 106.381714 71.020905
124 71.020905 0.000060 0.000119 0.002323 -0.000334 106.381714 71.020905
[R_front_hand02_02]
123 71.020844 -0.000030 -0.000119 0.002323 -0.000334 106.381714 71.020836
124 71.020844 -0.000030 -0.000119 0.002323 -0.000334 106.381714 71.020836
[R_front_hand03_02]
123 71.020905 0.000000 0.000030 0.002323 -0.000334 106.381714 71.020905
124 71.020905 0.000000 0.000030 0.002323 -0.000334 106.381714 71.020905
[null_rope01_connect]
123 328.732483 0.000000 -0.000238 25.387611 -60.223923 29.825954 328.732483
124 328.732483 0.000000 -0.000238 25.387609 -60.223911 29.825954 328.732483
[Rope1_Seg01]
123 6.235412 0.584961 4.978607 84.895889 -15.068747 -149.723068 8.000567
124 6.238952 0.585236 4.974129 84.545837 -14.431849 -149.001740 8.000562
[Rope1_Seg02]
123 139.999863 -0.000179 0.000000 -149.686935 37.263813 -43.277710 139.999863
124 139.999863 -0.000179 0.000000 -150.662979 36.186932 -42.262142 139.999863
[Rope1_Seg03]
123 139.999924 0.000060 -0.000060 -18.554829 -1.548719 9.667185 139.999924
124 139.999924 0.000060 -0.000060 -17.733091 -2.253485 10.162827 139.999924
[Rope1_Seg04]
123 139.999924 -0.000060 -0.000119 -22.470070 2.437272 13.781781 139.999924
124 139.999924 -0.000060 -0.000119 -20.999687 1.880924 13.277780 139.999924
[Rope1_Seg05]
123 139.999832 0.000119 -0.000060 -15.271342 -3.030554 24.867807 139.999832
124 139.999832 0.000119 -0.000060 -15.234274 -2.804406 24.262575 139.999832
[Rope1_Seg06]
123 139.999954 0.000119 -0.000060 -3.503779 -6.149056 13.913729 139.999954
124 139.999954 0.000119 -0.000060 -3.723509 -6.172622 14.296681 139.999954
[Rope1_Seg07]
123 139.999985 0.000060 0.000000 -1.080684 -4.035488 7.761035 139.999985
124 139.999985 0.000060 0.000000 -1.116770 -4.071956 7.866932 139.999985
[Rope1_Seg09]
123 121.602913 0.000119 -0.000089 -89.793175 -1.359789 0.847147 121.602913
124 121.602913 0.000119 -0.000089 -89.793175 -1.359789 0.847147 121.602913
[L_mid_hand01]
123 103.859421 1.038730 8.195221 116.294914 -23.111713 -31.758034 104.187431
124 103.859421 1.038730 8.195221 116.294914 -23.111713 -31.758034 104.187431
[L_mid_hand02]
123 105.572853 -4.139662 -10.864139 -144.219833 17.447468 -35.360519 106.211075
124 105.572853 -4.139662 -10.864139 -144.219833 17.447466 -35.360519 106.211075
[L_mid_hand03]
123 104.641464 17.579376 -3.913581 -17.830778 17.153101 31.982922 106.179977
124 104.641464 17.579376 -3.913581 -17.830780 17.153103 31.982925 106.179977
[null_rope02_connect]
123 328.732849 0.000179 -0.000119 -150.821350 -9.531432 -21.614666 328.732849
124 328.732849 0.000179 -0.000119 -149.297852 -0.059100 -22.033539 328.732849
[Rope2_Seg01]
123 0.000014 0.000525 0.000124 -24.388588 -39.916149 7.387223 0.000540
124 0.000014 0.000528 0.000125 -31.404480 -46.762630 17.768400 0.000543
[Rope2_Seg02]
123 139.999741 -0.000060 -0.000119 5.579252 3.988574 -19.370232 139.999756
124 139.999741 -0.000060 -0.000119 1.709115 5.427347 -16.654589 139.999756
[Rope2_Seg03]
123 140.000107 0.000030 0.000000 11.292792 0.603379 -21.085787 140.000107
124 140.000107 0.000030 0.000000 7.324525 5.926721 -22.964018 140.000107
[Rope2_Seg04]
123 139.999802 0.000000 -0.000060 12.560081 -0.305025 -17.846294 139.999802
124 139.999802 0.000000 -0.000060 12.756834 2.711342 -20.669090 139.999802
[Rope2_Seg05]
123 139.999985 -0.000060 0.000119 15.914182 -0.202897 -18.680820 139.999985
124 139.999985 -0.000060 0.000119 16.099298 -0.029764 -18.509054 139.999985
[Rope2_Seg06]
123 139.999893 -0.000030 -0.000119 12.004824 -4.020639 -11.490070 139.999893
124 139.999893 -0.000030 -0.000119 13.645960 -3.816675 -12.828651 139.999893
[Rope2_Seg07]
123 139.999893 0.000060 -0.000060 6.979267 -3.917480 -6.377946 139.999893
124 139.999893 0.000060 -0.000060 7.957025 -4.133456 -7.041511 139.999893
[Rope2_Seg09]
123 121.338966 0.000089 -0.000060 33.793236 -1.359788 -0.847141 121.338966
124 121.338966 0.000089 -0.000060 33.793236 -1.359788 -0.847141 121.338966
[R_mid_hand01]
123 104.680779 11.144459 -10.335981 -41.523792 25.424656 28.595957 105.778534
124 104.680779 11.144459 -10.335981 -41.523792 25.424656 28.595957 105.778534
[R_mid_hand02]
123 104.070427 2.443552 8.231699 72.847389 -32.746803 10.013901 104.424065
124 104.070427 2.443552 8.231699 72.847389 -32.746803 10.013901 104.424065
[R_mid_hand03]
123 106.028137 -11.221827 -5.996406 -167.901306 10.259192 -37.009720 106.788818
124 106.028137 -11.221827 -5.996406 -167.901306 10.259192 -37.009720 106.788818
[spine02]
123 129.756927 0.001550 0.000119 -0.245322 -4.052059 -4.355546 129.756927
124 129.756927 0.001550 0.000119 -0.245322 -4.052060 -4.355547 129.756927
[spine03]
123 78.614372 0.087280 -4.898829 0.369659 4.260734 -4.885720 78.766899
124 78.614372 0.087280 -4.898829 0.369659 4.260734 -4.885720 78.766899
[pelvis]
123 169.435242 0.051022 0.000000 -0.010007 -0.191417 -1.897554 169.435257
124 169.435242 0.051022 0.000000 -0.010007 -0.191417 -1.897554 169.435257
[null_rope03_connect]
123 -1.257226 -2.466202 137.391083 10.010469 -50.148731 84.557060 137.418976
124 -1.257226 -2.466202 137.391083 10.010469 -50.148731 84.557060 137.418976
[null_rope04_connect]
123 -1.259640 -2.480268 -137.844437 10.010469 -50.148731 84.557060 137.872513
124 -1.259640 -2.480268 -137.844437 10.010469 -50.148731 84.557060 137.872513
[Rope3_Seg01]
123 -0.000002 0.000496 -0.000248 -135.358887 44.880062 -77.965424 0.000555
124 -0.000002 0.000500 -0.000250 -137.928574 46.030975 -81.341408 0.000560
[Rope3_Seg02]
123 139.999924 -0.000119 0.000060 0.843805 3.159069 -3.384547 139.999924
124 139.999924 -0.000119 0.000060 1.037592 3.061664 -3.464188 139.999924
[Rope3_Seg03]
123 139.999924 -0.000119 0.000119 1.020380 5.078079 -5.637272 139.999924
124 139.999924 -0.000119 0.000119 1.313681 4.918041 -5.800982 139.999924
[Rope3_Seg04]
123 139.999924 0.000119 0.000000 0.617737 9.393119 -11.036003 139.999924
124 139.999924 0.000119 0.000000 1.063800 9.110801 -11.508904 139.999924
[Rope3_Seg05]
123 139.999924 -0.000238 0.000060 -6.370358 22.220276 -29.202999 139.999924
124 139.999924 -0.000238 0.000060 -6.079713 21.405951 -30.754406 139.999924
[Rope3_Seg06]
123 139.999893 -0.000119 -0.000060 -7.505526 16.917486 -21.679361 139.999893
124 139.999893 -0.000119 -0.000060 -7.917323 15.969114 -22.651979 139.999893
[Rope3_Seg07]
123 139.999771 0.000060 -0.000119 -1.687849 4.425066 -6.511719 139.999771
124 139.999771 0.000060 -0.000119 -2.001279 4.331580 -6.933812 139.999771
[Rope3_Seg08]
123 139.999985 -0.000060 0.000000 -2.359102 5.280426 -6.766335 139.999985
124 139.999985 -0.000060 0.000000 -2.801837 5.215701 -7.192387 139.999985
[Rope3_Seg09]
123 90.185997 -0.000179 -0.000060 89.793228 -1.359877 -0.847183 90.185997
124 90.185997 -0.000179 -0.000060 89.793228 -1.359877 -0.847183 90.185997
[R_rear_hand01]
123 103.366196 -6.073594 -10.757982 -158.627975 33.644127 -23.327253 104.101845
124 103.366196 -6.073594 -10.757982 -158.627975 33.644119 -23.327248 104.101845
[R_rear_hand02]
123 100.509819 12.039542 -7.992327 -36.327797 26.496241 23.332451 101.543350
124 100.509819 12.039542 -7.992327 -36.327797 26.496241 23.332451 101.543350
[R_rear_hand03]
123 101.539970 5.215704 5.435467 73.054977 -27.152536 27.950705 101.819031
124 101.539970 5.215704 5.435467 73.054977 -27.152536 27.950705 101.819031
[Rope4_Seg01]
123 -0.000023 0.000007 0.000028 13.356421 7.326084 -171.893097 0.000037
124 -0.000023 0.000007 0.000027 11.714590 8.639199 -172.084534 0.000036
[Rope4_Seg02]
123 139.999985 0.000060 0.000119 21.553616 -12.230493 4.944529 139.999985
124 139.999985 0.000060 0.000119 20.618130 -12.435814 4.626032 139.999985
[Rope4_Seg03]
123 139.999924 0.000000 -0.000238 39.845695 -13.023069 12.982353 139.999924
124 139.999924 0.000000 -0.000238 40.482990 -13.823006 12.617835 139.999924
[Rope4_Seg04]
123 139.999985 0.000000 0.000119 23.268948 0.942109 18.303038 139.999985
124 139.999985 0.000000 0.000119 24.564074 0.271413 18.739496 139.999985
[Rope4_Seg05]
123 139.999802 -0.000060 -0.000119 12.014484 3.405692 14.806484 139.999802
124 139.999802 -0.000060 -0.000119 12.276572 3.367185 14.954067 139.999802
[Rope4_Seg06]
123 139.999924 0.000000 0.000060 12.014302 3.640578 21.713329 139.999924
124 139.999924 0.000000 0.000060 12.188768 3.815150 21.970051 139.999924
[Rope4_Seg07]
123 139.999802 0.000000 0.000000 5.875818 7.329878 19.235807 139.999802
124 139.999802 0.000000 0.000000 5.947289 7.634925 19.617527 139.999802
[Rope4_Seg08]
123 139.999924 0.000000 0.000119 -0.361337 5.039601 9.337727 139.999924
124 139.999924 0.000000 0.000119 -0.400519 5.172682 9.440347 139.999924
[Rope4_Seg09]
123 90.185791 0.000060 0.000060 -135.617828 2.228885 0.850567 90.185791
124 90.185791 0.000060 0.000060 -135.617828 2.228885 0.850567 90.185791
[L_rear_hand01]
123 101.696655 -8.392275 -7.654577 -33.685814 -15.212529 149.017090 102.329041
124 101.696655 -8.392275 -7.654577 -33.685818 -15.212530 149.017090 102.329041
[L_rear_hand02]
123 102.726799 -1.568258 5.773216 83.407906 30.330435 172.796509 102.900848
124 102.726799 -1.568258 5.773216 83.407906 30.330435 172.796509 102.900848
[L_rear_hand03]
123 104.552910 9.721220 -10.420293 -160.801239 -15.606593 -150.211823 105.519653
124 104.552910 9.721220 -10.420293 -160.801239 -15.606593 -150.211823 105.519653
